<svg fill="#ffffff" height="512pt" viewBox="0 -39 512.00189 512" width="512pt" xmlns="http://www.w3.org/2000/svg"><path d="m504.097656 11.863281c-6.257812-7.648437-15.625-11.863281-26.378906-11.863281-5.851562 0-12.042969 1.234375-18.410156 3.664062l-433.402344 165.441407c-23 8.777343-26.097656 21.949219-25.8984375 29.023437.1992185 7.070313 4.0390625 20.046875 27.4999995 27.507813.140626.046875.28125.085937.421876.128906l60.78125 17.390625 296.015624-151.230469c7.375-3.773437 16.414063-.84375 20.183594 6.535157 2.960938 5.796874 1.773438 12.609374-2.445312 17.09375l.011718.011718-164.585937 174.878906-4.695313 19.027344 58.773438 47.328125 81.445312 65.582031c.070313.054688.140626.113282.214844.167969 8.960938 6.953125 18.75 10.625 28.308594 10.628907 18.679688 0 33.550781-13.824219 37.882812-35.214844l71.011719-350.640625c2.847657-14.070313.457031-26.667969-6.734375-35.460938zm0 0"/><path d="m209.714844 279.4375c.597656-2.425781 1.800781-4.738281 3.632812-6.6875l107.996094-114.753906-200.402344 102.382812 45.503906 130.136719c2.59375 7.414063 6.453126 13.726563 11.226563 18.667969l32.035156-129.75zm0 0"/><path d="m205.601562 421.230469c10.816407-.089844 21.445313-4.652344 30.757813-13.226563l33.292969-30.65625-44.390625-35.742187zm0 0"/></svg>